HIERARCHY
ROOT Hips
{
    OFFSET   0.000000   0.000000   0.000000
    CHANNELS 6 Xposition Yposition Zposition Zrotation Xrotation Yrotation
    JOINT Chest
    {
        OFFSET   0.000000   8.007230   0.000000
        CHANNELS 3 Zrotation Xrotation Yrotation
        JOINT Chest2
        {
            OFFSET   0.000000  22.077100   0.000000
            CHANNELS 3 Zrotation Xrotation Yrotation
            JOINT Neck
            {
                OFFSET   0.000000  23.254700   0.000000
                CHANNELS 3 Zrotation Xrotation Yrotation
                JOINT Head
                {
                    OFFSET   0.000010  14.370000   1.956610
                    CHANNELS 3 Zrotation Xrotation Yrotation
                    End Site
                    {
                        OFFSET   0.000000  19.566000   0.000000
                    }
                }
            }
            JOINT LeftCollar
            {
                OFFSET   3.911900  19.017000  -0.467063
                CHANNELS 3 Zrotation Xrotation Yrotation
                JOINT LeftShoulder
                {
                    OFFSET  10.383700   0.000000   0.000000
                    CHANNELS 3 Zrotation Xrotation Yrotation
                    JOINT LeftElbow
                    {
                        OFFSET  26.662100   0.001671   0.000522
                        CHANNELS 3 Zrotation Xrotation Yrotation
                        JOINT LeftWrist
                        {
                            OFFSET  28.869000   0.000037  -0.000114
                            CHANNELS 3 Zrotation Xrotation Yrotation
                            JOINT LeftFinger0
                            {
                                OFFSET   2.044650  -2.323450   3.252850
                                CHANNELS 3 Zrotation Xrotation Yrotation
                                JOINT LeftFinger01
                                {
                                    OFFSET   3.088140   0.000000   0.000000
                                    CHANNELS 3 Zrotation Xrotation Yrotation
                                    JOINT LeftFinger02
                                    {
                                        OFFSET   2.639460   0.000000   0.000000
                                        CHANNELS 3 Zrotation Xrotation Yrotation
                                        End Site
                                        {
                                            OFFSET   2.582190   0.000000   0.000000
                                        }
                                    }
                                }
                            }
                            JOINT LeftFinger1
                            {
                                OFFSET   8.364480   0.000000   3.252850
                                CHANNELS 3 Zrotation Xrotation Yrotation
                                JOINT LeftFinger11
                                {
                                    OFFSET   4.646930   0.000000   0.000000
                                    CHANNELS 3 Zrotation Xrotation Yrotation
                                    JOINT LeftFinger12
                                    {
                                        OFFSET   2.323470   0.000000   0.000000
                                        CHANNELS 3 Zrotation Xrotation Yrotation
                                        End Site
                                        {
                                            OFFSET   2.273050   0.000000   0.000000
                                        }
                                    }
                                }
                            }
                            JOINT LeftFinger2
                            {
                                OFFSET   8.364490   0.000016   1.078090
                                CHANNELS 3 Zrotation Xrotation Yrotation
                                JOINT LeftFinger21
                                {
                                    OFFSET   5.111620   0.000000   0.000000
                                    CHANNELS 3 Zrotation Xrotation Yrotation
                                    JOINT LeftFinger22
                                    {
                                        OFFSET   2.788150   0.000013   0.000000
                                        CHANNELS 3 Zrotation Xrotation Yrotation
                                        End Site
                                        {
                                            OFFSET   2.727660   0.000000   0.000000
                                        }
                                    }
                                }
                            }
                            JOINT LeftFinger3
                            {
                                OFFSET   7.899780   0.000016  -1.078090
                                CHANNELS 3 Zrotation Xrotation Yrotation
                                JOINT LeftFinger31
                                {
                                    OFFSET   4.646930   0.000000   0.000000
                                    CHANNELS 3 Zrotation Xrotation Yrotation
                                    JOINT LeftFinger32
                                    {
                                        OFFSET   2.323470   0.000000   0.000000
                                        CHANNELS 3 Zrotation Xrotation Yrotation
                                        End Site
                                        {
                                            OFFSET   2.273050   0.000000   0.000000
                                        }
                                    }
                                }
                            }
                            JOINT LeftFinger4
                            {
                                OFFSET   7.435080   0.000000  -3.252850
                                CHANNELS 3 Zrotation Xrotation Yrotation
                                JOINT LeftFinger41
                                {
                                    OFFSET   3.717550   0.000000   0.000000
                                    CHANNELS 3 Zrotation Xrotation Yrotation
                                    JOINT LeftFinger42
                                    {
                                        OFFSET   1.858760   0.000000   0.000000
                                        CHANNELS 3 Zrotation Xrotation Yrotation
                                        End Site
                                        {
                                            OFFSET   1.818440   0.000000   0.000000
                                        }
                                    }
                                }
                            }
                        }
                    }
                }
            }
            JOINT RightCollar
            {
                OFFSET  -3.911900  19.017000  -0.467064
                CHANNELS 3 Zrotation Xrotation Yrotation
                JOINT RightShoulder
                {
                    OFFSET -10.383700   0.000000   0.000000
                    CHANNELS 3 Zrotation Xrotation Yrotation
                    JOINT RightElbow
                    {
                        OFFSET -26.662100   0.001633   0.000260
                        CHANNELS 3 Zrotation Xrotation Yrotation
                        JOINT RightWrist
                        {
                            OFFSET -28.869000  -0.000045  -0.000080
                            CHANNELS 3 Zrotation Xrotation Yrotation
                            JOINT RightFinger0
                            {
                                OFFSET  -2.044660  -2.323490   3.252850
                                CHANNELS 3 Zrotation Xrotation Yrotation
                                JOINT RightFinger01
                                {
                                    OFFSET  -3.088140   0.000000   0.000000
                                    CHANNELS 3 Zrotation Xrotation Yrotation
                                    JOINT RightFinger02
                                    {
                                        OFFSET  -2.639450   0.000000   0.000000
                                        CHANNELS 3 Zrotation Xrotation Yrotation
                                        End Site
                                        {
                                            OFFSET  -2.582190   0.000000   0.000000
                                        }
                                    }
                                }
                            }
                            JOINT RightFinger1
                            {
                                OFFSET  -8.364480   0.000000   3.252850
                                CHANNELS 3 Zrotation Xrotation Yrotation
                                JOINT RightFinger11
                                {
                                    OFFSET  -4.646920   0.000000   0.000000
                                    CHANNELS 3 Zrotation Xrotation Yrotation
                                    JOINT RightFinger12
                                    {
                                        OFFSET  -2.323470   0.000000   0.000000
                                        CHANNELS 3 Zrotation Xrotation Yrotation
                                        End Site
                                        {
                                            OFFSET  -2.273050   0.000000   0.000000
                                        }
                                    }
                                }
                            }
                            JOINT RightFinger2
                            {
                                OFFSET  -8.364480   0.000000   1.078090
                                CHANNELS 3 Zrotation Xrotation Yrotation
                                JOINT RightFinger21
                                {
                                    OFFSET  -5.111610   0.000000   0.000000
                                    CHANNELS 3 Zrotation Xrotation Yrotation
                                    JOINT RightFinger22
                                    {
                                        OFFSET  -2.788160   0.000000   0.000000
                                        CHANNELS 3 Zrotation Xrotation Yrotation
                                        End Site
                                        {
                                            OFFSET  -2.727660   0.000000   0.000000
                                        }
                                    }
                                }
                            }
                            JOINT RightFinger3
                            {
                                OFFSET  -7.899780   0.000000  -1.078090
                                CHANNELS 3 Zrotation Xrotation Yrotation
                                JOINT RightFinger31
                                {
                                    OFFSET  -4.646930   0.000000   0.000000
                                    CHANNELS 3 Zrotation Xrotation Yrotation
                                    JOINT RightFinger32
                                    {
                                        OFFSET  -2.323470   0.000000   0.000000
                                        CHANNELS 3 Zrotation Xrotation Yrotation
                                        End Site
                                        {
                                            OFFSET  -2.273050   0.000000   0.000000
                                        }
                                    }
                                }
                            }
                            JOINT RightFinger4
                            {
                                OFFSET  -7.435090   0.000000  -3.252850
                                CHANNELS 3 Zrotation Xrotation Yrotation
                                JOINT RightFinger41
                                {
                                    OFFSET  -3.717550   0.000000   0.000000
                                    CHANNELS 3 Zrotation Xrotation Yrotation
                                    JOINT RightFinger42
                                    {
                                        OFFSET  -1.858760   0.000000   0.000000
                                        CHANNELS 3 Zrotation Xrotation Yrotation
                                        End Site
                                        {
                                            OFFSET  -1.818440   0.000000   0.000000
                                        }
                                    }
                                }
                            }
                        }
                    }
                }
            }
        }
    }
    JOINT LeftHip
    {
        OFFSET   9.782990   0.000000   0.000000
        CHANNELS 3 Zrotation Xrotation Yrotation
        JOINT LeftKnee
        {
            OFFSET  -0.000063 -41.789100   0.001657
            CHANNELS 3 Zrotation Xrotation Yrotation
            JOINT LeftAnkle
            {
                OFFSET   0.000078 -41.133200  -0.000113
                CHANNELS 3 Zrotation Xrotation Yrotation
                JOINT LeftToe
                {
                    OFFSET   0.000000  -6.358970  14.674500
                    CHANNELS 3 Zrotation Xrotation Yrotation
                    End Site
                    {
                        OFFSET   0.000000   0.000000   3.913200
                    }
                }
            }
        }
    }
    JOINT RightHip
    {
        OFFSET  -9.782990   0.000000   0.000000
        CHANNELS 3 Zrotation Xrotation Yrotation
        JOINT RightKnee
        {
            OFFSET   0.000053 -41.789200   0.000277
            CHANNELS 3 Zrotation Xrotation Yrotation
            JOINT RightAnkle
            {
                OFFSET   0.000030 -41.133200  -0.000150
                CHANNELS 3 Zrotation Xrotation Yrotation
                JOINT RightToe
                {
                    OFFSET   0.000000  -6.358960  14.674500
                    CHANNELS 3 Zrotation Xrotation Yrotation
                    End Site
                    {
                        OFFSET   0.000000   0.000000   3.913200
                    }
                }
            }
        }
    }
}
MOTION
Frames: 4
Frame Time:   0.016667
 -0.480569  89.616000  -2.548000  -2.146710  -5.325690  -1.505480   0.369147   3.138210   0.058386   0.736743   6.276740   0.096710   0.620895  -0.367613   0.008803   1.023780  -0.744980  -2.746310  -2.659090  -2.814900  -1.305960 -77.061600  13.307700   4.021880  -0.123712  -1.785680 -18.316400  11.152600  -4.455230   2.848410  38.661800  30.761300 -55.126000 -32.053600   0.000000   0.000000 -11.032000   0.001549  -0.000000 -31.741600   4.319900  -6.964570 -26.184800   0.008207   0.001565 -18.329400   0.011865   0.000458 -28.773200  -1.180940   2.133780 -42.812000  -0.001239   0.001373 -28.512800  -0.000398   0.001661 -28.722200  -1.178910   2.134880 -40.120100   0.001515   0.006955 -26.727700  -0.004577   0.001143 -35.152600  -1.411820   1.990400 -52.765800   0.000576   0.000000 -35.142100  -0.001273   0.000000   7.282860   0.455209   4.532490  73.265800  -0.665838  -7.993170  -0.262060  -6.938440   9.810740  -8.559680  -1.113060   4.757550 -41.232100  36.054400  70.769000  29.451500   0.002748  -0.001516   9.724040  -0.000271  -0.000182  31.643500   8.984560  14.220300  26.808900  -0.009735  -0.002969  18.766300  -0.009028  -0.007561  28.327200   5.152790   9.454530  40.488900  -0.005913  -0.003601  26.965600  -0.004611  -0.001685  28.484000   3.845500   7.047010  39.443100  -0.001106  -0.000559  26.269200  -0.000828  -0.008670  35.441300   0.134918   0.189600  53.162300  -0.000662  -0.000924  35.406100  -0.000345  -0.000926   2.023060   7.336520   3.978100   0.966434   0.000270   2.488770  -1.983880  -2.517900   1.451390   0.000000   0.000000  -0.000000   2.134690   5.411390   0.054272  -0.516504   2.157510  -3.939250  -0.933858  -3.285180  -1.215970   0.000000   0.000000   0.000000
 -0.497632  89.616500  -2.567150  -2.153100  -5.352870  -1.512620   0.369110   3.159160   0.055895   0.736882   6.318640   0.091579   0.620901  -0.383258   0.008809   1.023020  -0.776937  -2.694260  -2.658680  -2.823620  -1.293550 -77.048100  13.358900   4.012120  -0.135422  -1.814810 -18.335200  11.140600  -4.455230   2.848420  38.653300  30.751500 -55.113000 -32.053600   0.000000   0.000043 -11.031900   0.001555  -0.000000 -31.741500   4.319980  -6.964820 -26.184800   0.008208   0.001567 -18.329400   0.011865   0.000461 -28.773100  -1.180930   2.139350 -42.803400  -0.001241   0.001375 -28.507100  -0.000398   0.001660 -28.722100  -1.178910   2.140450 -40.119500   0.001516   0.006955 -26.725100  -0.004579   0.001143 -35.148500  -1.411810   1.995700 -52.759700   0.000575   0.000000 -35.138000  -0.001274   0.000000   7.286930   0.441498   4.545580  73.265300  -0.627685  -7.977460  -0.257581  -6.953940   9.818080  -8.552110  -1.112820   4.757550 -41.219400  36.046300  70.783600  29.451700   0.002767  -0.001498   9.724030  -0.000279  -0.000119  31.667200   8.996190  14.225200  26.829800  -0.009719  -0.002946  18.780900  -0.009016  -0.007560  28.327400   5.152570   9.454520  40.530100  -0.005872  -0.003567  26.993000  -0.004577  -0.001636  28.483600   3.847750   7.050490  39.496200  -0.001085  -0.000541  26.304500  -0.000809  -0.008673  35.472000   0.127610   0.179105  53.208200  -0.000630  -0.000894  35.436700  -0.000326  -0.000931   2.032910   7.350730   3.978530   0.975063   0.002034   2.489100  -1.990810  -2.508510   1.459180  -0.000000   0.000000   0.000000   2.155180   5.415800   0.053734  -0.515199   2.175030  -3.942790  -0.947645  -3.285570  -1.207530  -0.000000   0.000000   0.000000
 -0.526717  89.617300  -2.598110  -2.163070  -5.400350  -1.519810   0.368302   3.195420   0.050576   0.735485   6.391130   0.080730   0.620932  -0.407767   0.008825   1.022490  -0.826879  -2.600490  -2.657810  -2.837510  -1.269780 -77.024300  13.447100   3.991320  -0.154949  -1.859800 -18.365300  11.121800  -4.455220   2.848440  38.649500  30.744400 -55.095800 -32.053500   0.000000   0.000086 -11.031800   0.001562  -0.000000 -31.741500   4.320090  -6.965060 -26.184800   0.008211   0.001569 -18.329400   0.011865   0.000469 -28.772900  -1.180920   2.148980 -42.788100  -0.001243   0.001378 -28.496900  -0.000399   0.001659 -28.721900  -1.178900   2.150080 -40.115600   0.001518   0.006957 -26.717000  -0.004581   0.001144 -35.138300  -1.411800   2.004920 -52.744400   0.000575  -0.000000 -35.127800  -0.001276   0.000000   7.296060   0.414028   4.569080  73.262300  -0.553141  -7.950710  -0.248069  -6.980540   9.829810  -8.536530  -1.111130   4.757530 -41.211300  36.047100  70.817000  29.451900   0.002799  -0.001480   9.724030  -0.000292   0.000000  31.690800   9.007820  14.230100  26.850700  -0.009683  -0.002891  18.795500  -0.008983  -0.007558  28.327600   5.152350   9.454520  40.571200  -0.005783  -0.003490  27.020400  -0.004502  -0.001524  28.483200   3.850010   7.053960  39.549300  -0.001037  -0.000501  26.339800  -0.000768  -0.008679  35.502700   0.120303   0.168611  53.254200  -0.000560  -0.000825  35.467300  -0.000282  -0.000946   2.050410   7.378270   3.979090   0.988851   0.003798   2.489420  -2.003150  -2.491960   1.466960  -0.000000   0.000000   0.000000   2.188880   5.427070   0.052532  -0.512951   2.203610  -3.950960  -0.970729  -3.285960  -1.195380  -0.000000   0.000000  -0.000000
 -0.551297  89.618000  -2.620780  -2.169580  -5.443000  -1.516700   0.365689   3.227160   0.043990   0.730554   6.454540   0.067474   0.624562  -0.424109   0.008850   1.027570  -0.859842  -2.512820  -2.660850  -2.846380  -1.245880 -77.001800  13.522000   3.965480  -0.171103  -1.887950 -18.388500  11.105900  -4.444840   2.843480  38.656500  30.751700 -55.084900 -32.053600   0.000000   0.000082 -11.031700   0.001558   0.000000 -31.730100   4.320150  -6.963600 -26.175600   0.008216   0.001569 -18.322900   0.011867   0.000480 -28.772600  -1.184730   2.158060 -42.772800  -0.001245   0.001378 -28.486700  -0.000401   0.001660 -28.721500  -1.182670   2.159180 -40.092400   0.001520   0.006961 -26.699900  -0.004580   0.001143 -35.119200  -1.415900   2.013830 -52.716000   0.000575   0.000000 -35.109000  -0.001277  -0.000000   7.307700   0.384676   4.589630  73.256000  -0.474545  -7.928000  -0.237063  -7.009490   9.840060  -8.512010  -1.105950   4.756790 -41.233100  36.082600  70.859000  29.450000   0.002822  -0.001514   9.724030  -0.000301   0.000143  31.683200   9.003070  14.227000  26.843700  -0.009631  -0.002809  18.790600  -0.008931  -0.007555  28.327400   5.153330   9.457080  40.550500  -0.005658  -0.003379  27.006600  -0.004393  -0.001362  28.483500   3.846170   7.046950  39.523000  -0.000968  -0.000445  26.322300  -0.000710  -0.008685  35.482800   0.125040   0.175394  53.224400  -0.000465  -0.000727  35.447500  -0.000223  -0.000968   2.066870   7.408700   3.977760   0.998566   0.002752   2.488080  -2.014380  -2.477580   1.466760  -0.000000   0.000000  -0.000000   2.215030   5.444870   0.050893  -0.510965   2.224630  -3.963480  -0.989442  -3.285700  -1.188960  -0.000000   0.000000  -0.000000
